PathFileType	4	(X/Y/Z)	..\data\2014053\dynamic\2014053_C4_04.trc
DataRate	CameraRate	NumFrames	NumMarkers	Units	OrigDataRate	OrigDataStartFrame	OrigNumFrames
100.000000	100.000000	4	52	mm	100.000000	67	181
Frame#	Time	L_IAS			L_IPS			R_IPS			R_IAS			L_FTC			L_FLE			L_FME			L_FAX			L_TTC			L_FAL			L_TAM			L_FCC			L_FM1			L_FM2			L_FM5			R_FTC			R_FLE			R_FME			R_FAX			R_TTC			R_FAL			R_TAM			R_FCC			R_FM1			R_FM2			R_FM5			CV7			TV10			SXS			SJN			L_SIA			L_SRS			L_SAA			L_SAE			L_HLE			L_HME			L_UOA			L_RSP			L_UHE			L_HM2			L_HM5			R_SIA			R_SRS			R_SAA			R_SAE			R_HLE			R_HME			R_UOA			R_RSP			R_UHE			R_HM2			R_HM5			
		X1	Y1	Z1	X2	Y2	Z2	X3	Y3	Z3	X4	Y4	Z4	X5	Y5	Z5	X6	Y6	Z6	X7	Y7	Z7	X8	Y8	Z8	X9	Y9	Z9	X10	Y10	Z10	X11	Y11	Z11	X12	Y12	Z12	X13	Y13	Z13	X14	Y14	Z14	X15	Y15	Z15	X16	Y16	Z16	X17	Y17	Z17	X18	Y18	Z18	X19	Y19	Z19	X20	Y20	Z20	X21	Y21	Z21	X22	Y22	Z22	X23	Y23	Z23	X24	Y24	Z24	X25	Y25	Z25	X26	Y26	Z26	X27	Y27	Z27	X28	Y28	Z28	X29	Y29	Z29	X30	Y30	Z30	X31	Y31	Z31	X32	Y32	Z32	X33	Y33	Z33	X34	Y34	Z34	X35	Y35	Z35	X36	Y36	Z36	X37	Y37	Z37	X38	Y38	Z38	X39	Y39	Z39	X40	Y40	Z40	X41	Y41	Z41	X42	Y42	Z42	X43	Y43	Z43	X44	Y44	Z44	X45	Y45	Z45	X46	Y46	Z46	X47	Y47	Z47	X48	Y48	Z48	X49	Y49	Z49	X50	Y50	Z50	X51	Y51	Z51	X52	Y52	Z52	

68	0.67	592.8173828125001	916.7131347656252	-292.6716918945313	391.7425842285157	955.8210449218752	-209.0244293212891	401.5873107910157	948.5142211914065	-105.4058380126953	611.1381225585939	925.0842285156252	-63.44610977172853	503.6277770996095	850.972351074219	-364.5777893066407	432.1697692871095	455.6876220703126	-293.8153991699219	420.3554992675782	461.8926696777345	-160.8234252929688	383.3031921386719	407.6066284179689	-296.1056823730469	434.8529663085939	370.3399658203126	-229.7992248535157	189.0318450927735	108.820671081543	-260.4193115234376	205.809799194336	112.7504196166992	-173.7539215087891	122.8803482055664	84.18367767333986	-210.0540618896485	294.1070251464844	17.31500625610352	-149.5569000244141	317.5625000000001	32.05147933959962	-204.4340209960938	275.6802673339844	17.98413276672364	-267.9575500488282	546.5858764648439	848.4503173828127	24.31077384948731	682.7692871093751	483.2593688964845	-43.23891830444337	670.2265625000001	471.4244689941407	-180.9237823486328	675.2338256835939	418.1975402832032	-43.90647125244141	743.7761840820314	417.552459716797	-103.6907501220703	766.5924072265626	61.20605850219728	-85.25120544433595	785.0471801757815	79.66312408447267	-171.0187683105469	733.9970092773439	12.98075675964356	-151.415267944336	915.9326171875002	52.02326965332033	-180.3677368164063	921.658386230469	64.19223785400392	-128.4270477294922	892.8218383789065	35.15003204345704	-76.41493988037111	441.019500732422	1425.506469726563	-180.5213165283203	397.8407592773439	1193.22998046875	-180.7916717529297	607.6427001953126	1143.97314453125	-187.4622802734375	551.2649536132814	1354.46923828125	-184.906005859375	380.1277770996094	1241.588500976563	-271.8115539550782	398.850067138672	1366.147094726563	-273.1639709472657	464.4895935058595	1363.08935546875	-370.1405639648438	508.7135314941407	1368.7900390625	-370.0480957031251	508.8600158691407	1048.697143554688	-419.9934387207032	486.0264892578126	1033.07861328125	-341.0119934082032	481.4651184082032	1008.323791503906	-385.6126403808595	664.0081176757814	851.7822265625002	-371.1626892089844	621.0272216796876	841.8286743164065	-428.856414794922	718.6320190429689	785.0173950195315	-378.2971801757813	642.7864379882814	764.0897827148439	-428.5062255859376	374.3619689941407	1234.967895507813	-89.6505584716797	398.4434509277345	1359.636962890625	-91.90819549560548	459.943328857422	1358.809448242188	-5.738895893096925	505.6456909179689	1356.711791992188	10.99339580535889	435.7328186035157	1051.292114257813	54.22394180297853	433.4365234375001	1039.106079101563	-27.12635803222657	410.1759338378907	1021.600341796875	13.49483108520508	515.0537719726564	807.961608886719	68.40624237060548	452.3464965820314	819.2078857421877	93.74875640869142	526.0646362304689	716.5922241210939	75.91233062744142	434.8194885253907	740.8767089843751	92.10330200195314	
69	0.68	605.5739135742189	917.2493896484377	-291.0740966796876	405.0229797363282	956.9190673828127	-208.3975830078126	414.7771606445314	950.1702880859377	-104.552490234375	624.3649291992189	926.9416503906252	-62.65502929687501	517.4591064453126	851.0529785156252	-363.2311401367188	446.7251892089845	455.9163818359376	-294.2437133789063	434.8215637207032	461.5466613769532	-161.1409759521485	396.8801269531251	408.8855895996095	-296.5354309082032	448.3295288085939	369.6952514648438	-231.0242004394532	195.1861114501954	115.0969467163086	-262.3420410156251	212.6244506835938	117.9591217041016	-176.0078430175782	128.8389129638672	93.85089111328126	-211.5593719482422	293.2360534667969	17.64599418640137	-149.5554962158203	317.3827514648438	31.72387886047364	-204.4429321289063	276.3702697753907	18.19200706481934	-267.7507629394532	559.9956054687501	850.3286743164065	25.38173866271973	695.2569580078126	484.7434082031251	-44.25794982910157	681.0567016601564	472.8283081054689	-181.4490966796875	687.3460693359376	419.5390930175782	-44.59690475463868	754.3496093750001	417.724578857422	-105.5054473876953	769.5242919921877	60.34571838378908	-85.4671096801758	786.9158325195315	78.09686279296876	-171.8284759521485	733.7802124023439	13.33085441589356	-151.0028076171875	917.5673828125002	45.78075790405274	-182.3263702392578	924.2862548828127	58.26418685913087	-130.4461517333985	894.7942504882815	30.57678413391114	-77.37226867675783	451.8905639648439	1426.268432617188	-179.2785034179688	410.0640869140626	1193.70654296875	-179.7191619873047	620.2942504882814	1145.962890625	-186.3498687744141	562.5240478515626	1355.937744140625	-183.7604522705078	392.0110168457032	1241.923828125	-270.4529724121094	409.8331604003907	1366.601806640625	-271.7356262207032	475.1802673339845	1363.871826171875	-368.7854309082032	519.4072265625001	1369.84130859375	-368.8927307128907	518.5573730468751	1049.505981445313	-417.4871826171876	496.6118164062501	1034.418334960938	-338.2248229980469	491.2034301757814	1009.571533203125	-382.5426330566407	671.8797607421876	850.9168090820315	-369.9940795898438	628.2025756835939	841.4621582031252	-427.2355957031251	725.4428710937501	783.340026855469	-377.4044799804688	648.8707275390626	763.4056396484376	-426.9153442382814	386.4224243164064	1235.364379882813	-88.39324188232423	409.7163391113282	1360.051879882813	-90.69558715820314	471.4992675781251	1359.477416992188	-4.762171268463136	516.9315185546876	1358.023803710938	12.14988708496094	448.8191528320314	1052.171997070313	54.8782424926758	446.6741027832032	1040.161743164063	-26.49866485595704	423.3785705566407	1022.673950195313	14.03822898864746	527.0527954101564	808.612487792969	68.66103363037111	464.4603271484376	820.1530761718752	94.30030059814455	536.9344482421876	716.7471923828126	75.64290618896486	446.0821533203126	742.0474243164064	92.51609039306642	
70	0.6900000000000001	618.1828002929689	918.0216064453127	-289.3684082031251	418.2402648925782	958.0524902343752	-207.7626953125001	427.9693603515626	952.0278320312502	-103.6274948120117	637.6116943359376	929.1679687500002	-61.96363830566408	531.5644531250001	851.1990356445315	-361.8350830078126	462.2996826171876	456.0652160644532	-294.9864196777344	450.7462463378907	460.9184570312501	-161.7503051757813	411.5788574218751	410.1084594726564	-297.2807312011719	462.9898681640626	369.0651550292969	-232.7580871582032	202.5735931396485	121.6572341918946	-264.5011291503907	220.6524658203126	123.3847045898438	-178.49951171875	136.2041778564453	104.180404663086	-213.2887420654297	292.4790954589844	18.39981651306153	-149.5540313720703	317.3357238769532	31.47534751892091	-204.4020690917969	277.4021911621094	18.66817855834961	-267.4382629394532	573.6998901367189	852.5773925781252	26.47606086730958	707.6438598632814	486.3860168457032	-45.15673065185548	691.2891235351564	474.2208251953126	-181.8166046142578	699.3215942382814	421.0621643066407	-45.03065490722657	764.5131835937501	417.9960021972657	-107.2336502075196	772.2506103515627	59.80880355834962	-85.48493957519533	788.5043945312502	76.99024963378908	-172.4139404296875	733.4818115234376	13.9096040725708	-150.3739318847657	918.833435058594	40.26514053344727	-184.0906829833985	926.6101074218752	53.08573532104494	-132.2673645019532	896.536560058594	26.75527954101563	-77.97901153564455	462.7787170410157	1427.222045898438	-178.0241394042969	422.2721557617189	1194.414916992188	-178.6204223632813	632.9341430664064	1148.2158203125	-185.2310333251953	573.8030395507814	1357.629150390625	-182.6028747558594	403.9165954589845	1242.504150390625	-269.0890808105469	420.8521423339845	1367.263305664063	-270.2937011718751	485.900360107422	1364.90380859375	-367.4028015136719	530.1184692382814	1371.156982421875	-367.7203369140626	528.1107788085939	1050.63037109375	-414.946746826172	507.1688537597657	1036.076293945313	-335.3952941894532	500.8374938964845	1011.141784667969	-379.4207458496094	679.4642333984376	850.2129516601565	-368.9211425781251	635.0355224609376	841.3256835937502	-425.6544189453126	731.8155517578126	781.726013183594	-376.5891418457032	654.4859008789064	762.9487915039064	-425.3721313476564	398.5274658203126	1236.013427734375	-87.12963104248048	421.0144348144532	1360.673095703125	-89.50156402587892	482.997283935547	1360.44384765625	-3.764020204544068	528.2362060546876	1359.639404296875	13.27988147735596	461.9163513183595	1053.35791015625	55.51117324829103	460.0190734863282	1041.534912109375	-25.90130805969239	436.6505126953126	1024.005615234375	14.53105640411377	539.4090576171876	809.654479980469	69.0004348754883	476.8611755371095	821.4153442382815	94.86040496826173	548.2241210937501	717.3031616210939	75.4149856567383	457.7290954589845	743.5245971679689	92.87599945068361	
71	0.7000000000000001	630.5952148437501	918.9982910156252	-287.6152038574219	431.3209533691407	959.1437988281252	-207.106430053711	441.1066284179689	954.0141601562502	-102.6334457397461	650.8287963867189	931.6997680664065	-61.38819122314455	545.8193359375001	851.3909912109377	-360.4140930175782	478.8419189453126	456.1135864257814	-296.0464477539063	468.1685791015626	459.9796752929689	-162.6563568115235	427.3935852050782	411.2344055175782	-298.3651733398438	478.8067016601564	368.4528808593751	-234.9827423095704	211.2749633789063	128.4378814697266	-266.8721618652344	229.9467315673829	128.9900360107422	-181.1868591308594	145.053466796875	115.0511093139649	-215.240219116211	292.0743713378907	19.69370841979981	-149.5845642089844	317.6205139160157	31.39512634277344	-204.3391265869141	278.9511108398438	19.52160072326661	-267.0443115234376	587.6444702148439	855.1600341796877	27.57920646667481	719.8391113281251	488.1130676269532	-45.94166564941407	700.8755493164064	475.5622558593751	-182.0310668945313	711.0265502929689	422.6844787597657	-45.23409652709962	774.194519042969	418.3084716796876	-108.8538131713867	774.7794189453127	59.562801361084	-85.37362670898439	789.8801269531252	76.31832885742189	-172.8181304931641	733.2065429687501	14.63212680816651	-149.6038970947266	919.7920532226565	35.5860710144043	-185.6668701171875	928.6685180664065	48.75694656372072	-133.8922729492188	898.090759277344	23.74897766113282	-78.28205871582033	473.6907043457032	1428.337158203125	-176.7695922851563	434.4291992187501	1195.328125	-177.4947814941407	645.5184936523439	1150.653564453125	-184.1368255615235	585.0952758789064	1359.4873046875	-181.4548645019532	415.8055419921876	1243.311401367188	-267.7302246093751	431.8988647460939	1368.113891601563	-268.8533935546876	496.643035888672	1366.15087890625	-366.0128784179688	540.8421020507814	1372.688598632813	-366.5476379394532	537.5209350585939	1052.0205078125	-412.4024047851564	517.6915283203126	1037.998291015625	-332.5563049316407	510.3775329589845	1012.982055664063	-376.2841796875001	686.7961425781251	849.6590576171877	-367.9514160156251	641.5655517578126	841.3953247070315	-424.117156982422	737.7887573242189	780.174255371094	-375.8440856933594	659.6839599609376	762.7087402343751	-423.8721008300782	410.6549377441407	1236.889038085938	-85.86600494384767	432.3388977050782	1361.479125976563	-88.32925415039064	494.4474182128907	1361.675903320313	-2.753347396850586	539.5661621093751	1361.503784179688	14.37616062164307	474.9965209960939	1054.802612304688	56.13559341430665	473.4263610839845	1043.171508789063	-25.31868362426759	449.9579162597657	1025.541870117188	14.99462890625	552.1271362304689	811.045349121094	69.44224548339845	489.5585327148439	822.944519042969	95.4401321411133	559.9833984375001	718.2362670898439	75.24899291992189	469.7920837402345	745.2506713867189	93.19057464599611	
